<?xml version="1.0" encoding="utf-8"?>
<!-- Generator: Adobe Illustrator 21.0.0, SVG Export Plug-In . SVG Version: 6.00 Build 0)  -->
<svg version="1.1" id="图层_1" xmlns="http://www.w3.org/2000/svg" xmlns:xlink="http://www.w3.org/1999/xlink" x="0px" y="0px"
	 viewBox="0 0 50 50" style="enable-background:new 0 0 50 50;" xml:space="preserve">
<style type="text/css">
	.st0{fill:#CCCCCC;}
</style>
<title>icon-addpeople</title>
<desc>Created with Sketch.</desc>
<g id="icon-addpeople">
	<path id="Fill-57" class="st0" d="M10.5,25.5C10.1,25.2,10,25.1,10,25v-1c0-0.1,0.1-0.2,0.5-0.5h12.9V10.5c0.3-0.4,0.4-0.5,0.5-0.5
		h1c0.1,0,0.2,0.1,0.5,0.5v12.9h12.9c0.4,0.3,0.5,0.4,0.5,0.5v1c0,0.1-0.1,0.2-0.5,0.5H25.5v12.9C25.2,38.9,25.1,39,25,39h-1
		c-0.1,0-0.2-0.1-0.5-0.5V25.5H10.5z"/>
	<path id="Oval-5" class="st0" d="M25,49c13.3,0,24-10.7,24-24S38.3,1,25,1S1,11.7,1,25S11.7,49,25,49z M25,50C11.2,50,0,38.8,0,25
		S11.2,0,25,0s25,11.2,25,25S38.8,50,25,50z"/>
</g>
</svg>
