<?xml version="1.0" encoding="utf-8"?>
<!-- Generator: Adobe Illustrator 21.0.0, SVG Export Plug-In . SVG Version: 6.00 Build 0)  -->
<svg version="1.1" id="图层_1" xmlns="http://www.w3.org/2000/svg" xmlns:xlink="http://www.w3.org/1999/xlink" x="0px" y="0px"
	 viewBox="0 0 77 77" style="enable-background:new 0 0 77 77;" xml:space="preserve">
<style type="text/css">
	.st0{fill:#CCCCCC;}
</style>
<title>icon-addpic</title>
<desc>Created with Sketch.</desc>
<g id="icon-addpic">
	<path id="Rectangle-52" class="st0" d="M1,1v75h75V1H1z M0,0h77v77H0V0z"/>
	<path id="Fill-57" class="st0" d="M20.6,39.8c-0.5-0.4-0.7-0.6-0.7-0.7v-1.3c0-0.1,0.2-0.3,0.7-0.7h16.6V20.6
		c0.4-0.5,0.6-0.7,0.7-0.7h1.3c0.1,0,0.3,0.2,0.7,0.7v16.6h16.6c0.5,0.4,0.7,0.6,0.7,0.7v1.3c0,0.1-0.2,0.3-0.7,0.7H39.8v16.6
		c-0.4,0.5-0.6,0.7-0.7,0.7h-1.3c-0.1,0-0.3-0.2-0.7-0.7V39.8H20.6z"/>
</g>
</svg>
