<?xml version="1.0" encoding="utf-8"?>
<!-- Generator: Adobe Illustrator 21.0.0, SVG Export Plug-In . SVG Version: 6.00 Build 0)  -->
<svg version="1.1" id="图层_1" xmlns="http://www.w3.org/2000/svg" xmlns:xlink="http://www.w3.org/1999/xlink" x="0px" y="0px"
	 viewBox="0 0 40 40" style="enable-background:new 0 0 40 40;" xml:space="preserve">
<style type="text/css">
	.st0{fill:#969EF3;}
</style>
<g>
	<polygon class="st0" points="25.6,15.6 24.8,14.8 21.5,18.1 22.3,18.9 	"/>
	<path class="st0" d="M38,0H2C0.9,0,0,0.9,0,2v36c0,1.1,0.9,2,2,2h36c1.1,0,2-0.9,2-2V2C40,0.9,39.1,0,38,0z M27.7,8.8l2.6,2.6
		c1,1,1,2.7,0,3.7l-7,7c-0.4,0.4-1,0.7-1.5,0.7l-5,1.3l0,0c-0.1,0-0.1,0-0.2,0c-0.4,0-0.7-0.1-1-0.4c-0.3-0.3-0.4-0.7-0.4-1.1l0,0
		l1-5.2c0.1-0.6,0.3-1.1,0.7-1.6l7-7C25.1,7.8,26.7,7.8,27.7,8.8z M32,25.7c0,1.3-1.1,2.4-2.4,2.4H19.3L15.1,32l-3.8-3.9h-0.9
		c-1.3,0-2.4-1.1-2.4-2.4V12c0-1.3,1.1-2.4,2.4-2.4h6.7v2l0,0h-6.7c-0.2,0-0.4,0.2-0.4,0.4v13.7c0,0.2,0.2,0.4,0.4,0.4h1.8l3,3.1
		l3.3-3.1h11c0.2,0,0.4-0.2,0.4-0.4v-5.9h2V25.7z"/>
	<path class="st0" d="M29.4,14.1c0.5-0.5,0.5-1.3,0-1.7l-2.6-2.6c-0.2-0.2-0.6-0.4-0.9-0.4c-0.3,0-0.6,0.1-0.9,0.4L24.7,10l4.4,4.4
		L29.4,14.1z"/>
	<polygon class="st0" points="19.6,22 17.3,19.6 16.7,22.8 	"/>
</g>
</svg>
