<?xml version="1.0" standalone="no"?><!DOCTYPE svg PUBLIC "-//W3C//DTD SVG 1.1//EN" "http://www.w3.org/Graphics/SVG/1.1/DTD/svg11.dtd"><svg t="1520320440708" class="icon" style="" viewBox="0 0 1024 1024" version="1.1" xmlns="http://www.w3.org/2000/svg" p-id="1411" xmlns:xlink="http://www.w3.org/1999/xlink" width="64" height="64"><defs><style type="text/css"></style></defs><path d="M512 724.385185l132.740741-83.437037 113.777778 68.266667V303.407407H265.481481v409.6l113.777778-60.681481 132.740741 72.059259zM341.333333 417.185185h341.333334v37.925926H341.333333v-37.925926z m0 113.777778h341.333334v37.925926H341.333333v-37.925926z" p-id="1412"></path><path d="M512 0C227.555556 0 0 227.555556 0 512S227.555556 1024 512 1024 1024 796.444444 1024 512 796.444444 0 512 0zM796.444444 303.407407v455.111112h-37.925925v-3.792593l-113.777778-68.266667-132.740741 79.644445-132.740741-72.05926-113.777778 60.681482v3.792593H227.555556V265.481481h568.888888v37.925926z" p-id="1413"></path></svg>