<?xml version="1.0" standalone="no"?><!DOCTYPE svg PUBLIC "-//W3C//DTD SVG 1.1//EN" "http://www.w3.org/Graphics/SVG/1.1/DTD/svg11.dtd"><svg t="1516953222931" class="icon" style="" viewBox="0 0 1024 1024" version="1.1" xmlns="http://www.w3.org/2000/svg" p-id="1111" xmlns:xlink="http://www.w3.org/1999/xlink" width="64" height="64"><defs><style type="text/css"></style></defs><path d="M911.2 911.9c-10 10-23.1 15-36.2 15-13.1 0-26.2-5-36.2-15L512.1 585.1 185.6 911.9c-10 10-23.1 15-36.2 15-13.1 0-26.3-5-36.2-15-9.7-9.7-15-22.5-15-36.3 0-13.7 5.3-26.6 15-36.3l326.6-326.8-326.7-326.7c-20-20-20-52.5 0-72.5s52.5-20 72.5 0L512.1 440l326.6-326.8c20-20 52.5-20 72.5 0s20 52.5 0 72.5L584.6 512.6l326.6 326.8c19.9 20 19.9 52.5 0 72.5z" p-id="1112"></path></svg>