<?xml version="1.0" encoding="utf-8"?>
<!-- Generator: Adobe Illustrator 21.0.0, SVG Export Plug-In . SVG Version: 6.00 Build 0)  -->
<svg version="1.1" id="图层_1" xmlns="http://www.w3.org/2000/svg" xmlns:xlink="http://www.w3.org/1999/xlink" x="0px" y="0px"
	 viewBox="0 0 16 16" style="enable-background:new 0 0 16 16;" xml:space="preserve">
<style type="text/css">
	.st0{fill:#6FA439;}
</style>
<title>正确</title>
<desc>Created with Sketch.</desc>
<path id="Shape" class="st0" d="M8,1C4.2,1,1,4.2,1,8s3.1,7,7,7s7-3.1,7-7C15,4.2,11.8,1,8,1z M12.3,6.1l-5.2,5.2
	c-0.1,0.1-0.3,0.1-0.5,0L6,10.6l0,0L3.7,8.3C3.6,8.2,3.6,8,3.7,7.9l0.7-0.7c0.1-0.1,0.3-0.1,0.5,0l2,2l4.3-4.3
	c0.1-0.1,0.3-0.1,0.5,0l0.7,0.7C12.5,5.7,12.5,5.9,12.3,6.1z"/>
</svg>
