<?xml version="1.0" encoding="utf-8"?>
<!-- Generator: Adobe Illustrator 21.0.0, SVG Export Plug-In . SVG Version: 6.00 Build 0)  -->
<svg version="1.1" id="图层_1" xmlns="http://www.w3.org/2000/svg" xmlns:xlink="http://www.w3.org/1999/xlink" x="0px" y="0px"
	 viewBox="0 0 10 12" style="enable-background:new 0 0 10 12;" xml:space="preserve">
<style type="text/css">
	.st0{fill:#908EA7;}
</style>
<title>Page 1</title>
<desc>Created with Sketch.</desc>
<path id="Fill-1" class="st0" d="M8.4,5.9l-4.7,4.7c-0.2,0.2-0.2,0.5,0,0.7c0.2,0.2,0.5,0.2,0.7,0l5.4-5.4L4.4,0.5
	c-0.2-0.2-0.5-0.2-0.7,0C3.4,0.7,3.4,1,3.7,1.2L8.4,5.9z M5.4,5.9l-4.7,4.7c-0.2,0.2-0.2,0.5,0,0.7c0.2,0.2,0.5,0.2,0.7,0l5.4-5.4
	L1.4,0.5c-0.2-0.2-0.5-0.2-0.7,0C0.4,0.7,0.4,1,0.7,1.2L5.4,5.9z"/>
</svg>
