<?xml version="1.0" encoding="utf-8"?>
<!-- Generator: Adobe Illustrator 21.0.0, SVG Export Plug-In . SVG Version: 6.00 Build 0)  -->
<svg version="1.1" id="图层_1" xmlns="http://www.w3.org/2000/svg" xmlns:xlink="http://www.w3.org/1999/xlink" x="0px" y="0px"
	 viewBox="0 0 16 16" style="enable-background:new 0 0 16 16;" xml:space="preserve">
<style type="text/css">
	.st0{fill:#4F62DF;}
</style>
<g>
	<path class="st0" d="M9.4,13.2H6.6c-0.2,0-0.4,0.2-0.4,0.4s0.2,0.4,0.4,0.4h2.8c0.2,0,0.4-0.2,0.4-0.4S9.6,13.2,9.4,13.2z"/>
	<path class="st0" d="M9.4,14H6.6c-0.2,0-0.4,0.2-0.3,0.5c0,0.1,0.2,0.2,0.4,0.2h0c0.2,0,0.4,0.1,0.5,0.3l0,0
		c0.1,0.2,0.4,0.4,0.7,0.4h0.5c0.3,0,0.5-0.2,0.7-0.4l0,0c0.1-0.2,0.3-0.3,0.5-0.3h0c0.2,0,0.3-0.1,0.4-0.2C9.8,14.3,9.7,14,9.4,14z
		"/>
	<path class="st0" d="M8,2.7c0.2,0,0.4-0.2,0.4-0.4V0.9c0-0.2-0.2-0.4-0.4-0.4S7.6,0.7,7.6,0.9v1.4C7.6,2.5,7.8,2.7,8,2.7z"/>
	<path class="st0" d="M4.2,4c0.1,0.1,0.2,0.1,0.3,0.1c0.1,0,0.2,0,0.3-0.1c0.1-0.1,0.1-0.4,0-0.5l-1-1c-0.1-0.1-0.4-0.1-0.5,0
		C3.1,2.7,3.1,2.9,3.2,3L4.2,4z"/>
	<path class="st0" d="M3.4,7.3c0-0.2-0.2-0.4-0.4-0.4H1.6c-0.2,0-0.4,0.2-0.4,0.4s0.2,0.4,0.4,0.4H3C3.2,7.6,3.4,7.5,3.4,7.3z"/>
	<path class="st0" d="M4.2,10.6l-1,1c-0.1,0.1-0.1,0.4,0,0.5c0.1,0.1,0.2,0.1,0.3,0.1s0.2,0,0.3-0.1l1-1c0.1-0.1,0.1-0.4,0-0.5
		C4.6,10.4,4.4,10.4,4.2,10.6z"/>
	<path class="st0" d="M11.8,10.6c-0.1-0.1-0.4-0.1-0.5,0s-0.1,0.4,0,0.5l1,1c0.1,0.1,0.2,0.1,0.3,0.1s0.2,0,0.3-0.1
		c0.1-0.1,0.1-0.4,0-0.5L11.8,10.6z"/>
	<path class="st0" d="M14.4,6.9H13c-0.2,0-0.4,0.2-0.4,0.4s0.2,0.4,0.4,0.4h1.4c0.2,0,0.4-0.2,0.4-0.4S14.6,6.9,14.4,6.9z"/>
	<path class="st0" d="M11.5,4.1c0.1,0,0.2,0,0.3-0.1l1-1c0.1-0.1,0.1-0.4,0-0.5c-0.1-0.1-0.4-0.1-0.5,0l-1,1c-0.1,0.1-0.1,0.4,0,0.5
		C11.3,4.1,11.4,4.1,11.5,4.1z"/>
	<path class="st0" d="M9.4,12.3c0.2-2,2.3-2.4,2.3-4.8c0-2.1-1.7-3.7-3.7-3.7S4.3,5.4,4.3,7.5c0,2.4,2.1,2.8,2.3,4.8
		c-0.2,0-0.3,0.2-0.3,0.4c0,0.2,0.2,0.4,0.4,0.4h2.8c0.2,0,0.4-0.2,0.4-0.4C9.8,12.4,9.6,12.3,9.4,12.3z M7,5.1
		C6.3,5.4,5.7,6,5.5,6.8C5.5,6.9,5.4,7,5.2,7c0,0,0,0-0.1,0C5,7,5,6.8,5,6.7c0.2-1,0.9-1.7,1.8-2.1c0.1-0.1,0.3,0,0.3,0.1
		C7.2,4.9,7.2,5,7,5.1z"/>
</g>
</svg>
