<?xml version="1.0" encoding="utf-8"?>
<!-- Generator: Adobe Illustrator 21.0.0, SVG Export Plug-In . SVG Version: 6.00 Build 0)  -->
<svg version="1.1" id="图层_1" xmlns="http://www.w3.org/2000/svg" xmlns:xlink="http://www.w3.org/1999/xlink" x="0px" y="0px"
	 viewBox="0 0 40 40" style="enable-background:new 0 0 40 40;" xml:space="preserve">
<style type="text/css">
	.st0{fill:#6CD4D1;}
</style>
<path class="st0" d="M38,0H2C0.9,0,0,0.9,0,2v36c0,1.1,0.9,2,2,2h36c1.1,0,2-0.9,2-2V2C40,0.9,39.1,0,38,0z M14.7,32.1
	c0,0.1,0,0.2-0.1,0.2l-1.2,1.2c0,0-0.1,0.1-0.2,0.1c-0.1,0-0.2-0.1-0.2-0.2L8,13.8c0-0.1,0-0.2,0.1-0.3l1.1-0.4c0.1,0,0.2,0,0.3,0.1
	l0.3,0.3c0.5-0.2,2.3-0.7,4.3-0.8c0.1,0,0.2,0,0.3,0c1.3,0,2.1,0.4,2.9,0.7c0.6,0.2,1.1,0.5,1.7,0.6c0.1,0,0.2,0,0.3,0
	c1.6,0,4.1-1.7,4.1-1.7c0.1,0,0.2-0.1,0.2,0c0.1,0,0.1,0.1,0.1,0.2v7.9c0,0,0,0.1,0,0.1c0,0-0.4,0.7-1.3,1.4
	c-0.5,0.4-1.2,0.7-1.9,0.9c-0.9,0.3-1.8,0.4-2.9,0.4c-1.9,0-2.8,0.6-3.3,1.1c-0.4,0.5-0.7,1.1-0.6,1.7
	C13.7,27.1,14.7,32.1,14.7,32.1z M32,24.2c0,1.3-1.1,2.4-2.4,2.4h-9.2v-2h9.2c0.2,0,0.4-0.2,0.4-0.4V10.6c0-0.2-0.2-0.4-0.4-0.4h-12
	c-0.2,0-0.3,0.1-0.4,0.3h-2l0,0c0.1-1.3,1.1-2.2,2.4-2.2h12c1.3,0,2.4,1.1,2.4,2.4V24.2z"/>
</svg>
