<?xml version="1.0" standalone="no"?><!DOCTYPE svg PUBLIC "-//W3C//DTD SVG 1.1//EN" "http://www.w3.org/Graphics/SVG/1.1/DTD/svg11.dtd"><svg class="icon" width="200px" height="200.00px" viewBox="0 0 1024 1024" version="1.1" xmlns="http://www.w3.org/2000/svg"><path fill="#333333" d="M782.628571 73.142857h-73.142857V0h-73.142857v73.142857h-292.571428V0h-73.142858v73.142857h-73.142857c-80.457143 0-146.285714 65.828571-146.285714 146.285714v658.285715c0 80.457143 65.828571 146.285714 146.285714 146.285714h585.142857c80.457143 0 146.285714-65.828571 146.285715-146.285714V219.428571c0-80.457143-65.828571-146.285714-146.285715-146.285714z m73.142858 804.571429c0 43.885714-36.571429 73.142857-73.142858 73.142857h-585.142857c-43.885714 0-73.142857-29.257143-73.142857-73.142857V219.428571c0-43.885714 36.571429-73.142857 73.142857-73.142857h73.142857v73.142857h73.142858V146.285714h292.571428v73.142857h73.142857V146.285714h73.142857c43.885714 0 73.142857 29.257143 73.142858 73.142857v658.285715zM270.628571 438.857143h438.857143v73.142857h-438.857143zM270.628571 658.285714h438.857143v73.142857h-438.857143z" /></svg>