<?xml version="1.0" encoding="utf-8"?>
<!-- Generator: Adobe Illustrator 21.0.0, SVG Export Plug-In . SVG Version: 6.00 Build 0)  -->
<svg version="1.1" id="图层_1" xmlns="http://www.w3.org/2000/svg" xmlns:xlink="http://www.w3.org/1999/xlink" x="0px" y="0px"
	 viewBox="0 0 40 40" style="enable-background:new 0 0 40 40;" xml:space="preserve">
<style type="text/css">
	.st0{fill:#D4A76C;}
</style>
<path class="st0" d="M38,0H2C0.9,0,0,0.9,0,2v36c0,1.1,0.9,2,2,2h36c1.1,0,2-0.9,2-2V2C40,0.9,39.1,0,38,0z M24,21.3
	c0.6,0,1,0.4,1,1s-0.4,1-1,1h-3.1v2.3c0,0.6-0.4,1-1,1s-1-0.4-1-1v-2.2h-3.1c-0.6,0-1-0.4-1-1s0.4-1,1-1h3.1v-1h-3.1
	c-0.6,0-1-0.4-1-1c0-0.6,0.4-1,1-1h2.6l-2.4-2.8c-0.3-0.3-0.3-1,0-1.3c0.4-0.4,1-0.4,1.4,0l2.6,3.2l2.8-3.3c0.4-0.4,1-0.4,1.4,0
	c0.2,0.2,0.3,0.4,0.3,0.7c0,0.3-0.1,0.5-0.3,0.7l-2.4,2.8H24c0.6,0,1,0.4,1,1s-0.4,1-1,1h-3.1v1H24z M19.6,10
	c-5.7,0-10.4,4.7-10.4,10.4c0,5.7,4.7,10.4,10.4,10.4c3.2,0,6.1-1.5,8.1-3.9l-2.3-2.3h6.4V31l-2.7-2.7c-2.3,2.8-5.8,4.5-9.5,4.5
	c-6.8,0-12.4-5.6-12.4-12.4C7.2,13.6,12.8,8,19.6,8c6.6,0,12,5.1,12.4,11.7l-2,0.1C29.7,14.3,25.1,10,19.6,10z"/>
</svg>
