<?xml version="1.0" standalone="no"?><!DOCTYPE svg PUBLIC "-//W3C//DTD SVG 1.1//EN" "http://www.w3.org/Graphics/SVG/1.1/DTD/svg11.dtd"><svg t="1516930794057" class="icon" style="" viewBox="0 0 1024 1024" version="1.1" xmlns="http://www.w3.org/2000/svg" p-id="879" xmlns:xlink="http://www.w3.org/1999/xlink" width="64" height="64"><defs><style type="text/css"></style></defs><path d="M536.380952 658.285714c-175.542857 0-316.952381-141.409524-316.952381-316.952381S360.838095 24.380952 536.380952 24.380952s316.952381 141.409524 316.952381 316.952381-141.409524 316.952381-316.952381 316.952381z m0-585.142857C390.095238 73.142857 268.190476 195.047619 268.190476 341.333333S390.095238 609.52381 536.380952 609.52381 804.571429 487.619048 804.571429 341.333333 682.666667 73.142857 536.380952 73.142857z" p-id="880"></path><path d="M126.780952 965.485714l-48.761904-9.752381c34.133333-199.92381 219.428571-351.085714 438.857142-351.085714 126.780952 0 248.685714 48.761905 331.580953 141.409524l-39.009524 34.133333c-73.142857-78.019048-180.419048-121.904762-297.447619-121.904762-190.171429 0-355.961905 131.657143-385.219048 307.2z" p-id="881"></path><path d="M390.095238 828.952381h585.142857v48.761905H390.095238zM390.095238 975.238095h585.142857v48.761905H390.095238z" p-id="882"></path></svg>