<?xml version="1.0" standalone="no"?><!DOCTYPE svg PUBLIC "-//W3C//DTD SVG 1.1//EN" "http://www.w3.org/Graphics/SVG/1.1/DTD/svg11.dtd"><svg t="1516951696142" class="icon" style="" viewBox="0 0 1025 1024" version="1.1" xmlns="http://www.w3.org/2000/svg" p-id="1283" xmlns:xlink="http://www.w3.org/1999/xlink" width="64.0625" height="64"><defs><style type="text/css"></style></defs><path d="M511.418842 446.329171L348.694665 283.604994c-18.597049-18.597049-46.492622-18.597049-65.089671 0-18.597049 18.597049-18.597049 46.492622 0 65.089671L446.329171 511.418842l-162.724177 162.724177c-18.597049 18.597049-18.597049 46.492622 0 65.089671 18.597049 18.597049 46.492622 18.597049 65.089671 0l162.724177-162.724177 162.724177 162.724177c18.597049 18.597049 46.492622 18.597049 65.089671 0 18.597049-18.597049 18.597049-46.492622 0-65.089671L576.508513 511.418842l162.724177-162.724177c18.597049-18.597049 18.597049-46.492622 0-65.089671-18.597049-18.597049-46.492622-18.597049-65.089671 0L511.418842 446.329171z m-362.642452 427.732123c-199.918275-199.918275-199.918275-525.366629 0-725.284904 199.918275-199.918275 525.366629-199.918275 725.284904 0 199.918275 199.918275 199.918275 525.366629 0 725.284904-199.918275 199.918275-525.366629 199.918275-725.284904 0z" p-id="1284"></path></svg>