<?xml version="1.0" standalone="no"?><!DOCTYPE svg PUBLIC "-//W3C//DTD SVG 1.1//EN" "http://www.w3.org/Graphics/SVG/1.1/DTD/svg11.dtd"><svg class="icon" width="200px" height="200.00px" viewBox="0 0 1024 1024" version="1.1" xmlns="http://www.w3.org/2000/svg"><path fill="#333333" d="M708.923077 630.153846c7.876923 0 15.753846 7.876923 15.753846 15.753846l267.815385 267.815385c23.630769 23.630769 23.630769 63.015385 0 86.646154-23.630769 23.630769-63.015385 23.630769-86.646154 0L645.907692 724.676923c-7.876923 0-15.753846-7.876923-15.753846-15.753846-63.015385 47.261538-149.661538 78.769231-236.307692 78.769231-220.553846 0-393.846154-173.292308-393.846154-393.846154s173.292308-393.846154 393.846154-393.846154 393.846154 173.292308 393.846154 393.846154c0 86.646154-31.507692 173.292308-78.769231 236.307692zM393.846154 708.923077c173.292308 0 315.076923-141.784615 315.076923-315.076923S567.138462 78.769231 393.846154 78.769231 78.769231 220.553846 78.769231 393.846154s141.784615 315.076923 315.076923 315.076923z" /></svg>