<?xml version="1.0" standalone="no"?><!DOCTYPE svg PUBLIC "-//W3C//DTD SVG 1.1//EN" "http://www.w3.org/Graphics/SVG/1.1/DTD/svg11.dtd"><svg class="icon" width="200px" height="200.00px" viewBox="0 0 1024 1024" version="1.1" xmlns="http://www.w3.org/2000/svg"><path fill="#333333" d="M599.771429 1024c-14.628571 0-29.257143 0-43.885715-7.314286L365.714286 921.6c-36.571429-14.628571-58.514286-51.2-58.514286-87.771429V497.371429c0-7.314286 0-14.628571-7.314286-14.628572L58.514286 168.228571C36.571429 138.971429 29.257143 95.085714 43.885714 65.828571 58.514286 21.942857 95.085714 0 131.657143 0h760.685714c36.571429 0 73.142857 21.942857 87.771429 58.514286s14.628571 73.142857-14.628572 102.4L702.171429 497.371429c-7.314286 0-7.314286 7.314286-7.314286 14.628571v409.6c0 36.571429-14.628571 65.828571-43.885714 87.771429-21.942857 7.314286-36.571429 14.628571-51.2 14.628571zM131.657143 73.142857c-14.628571 0-21.942857 14.628571-21.942857 21.942857s-7.314286 14.628571 0 29.257143L365.714286 431.542857c14.628571 14.628571 21.942857 36.571429 21.942857 65.828572v336.457142c0 7.314286 7.314286 21.942857 14.628571 21.942858L585.142857 943.542857c14.628571 7.314286 21.942857 0 21.942857 0 7.314286 0 14.628571-7.314286 14.628572-21.942857V512c0-21.942857 7.314286-43.885714 21.942857-65.828571l270.628571-329.142858c7.314286-14.628571 7.314286-21.942857 0-29.257142 0-7.314286-7.314286-14.628571-21.942857-14.628572H131.657143z" /></svg>