<svg width="50" height="50" viewBox="0 0 50 50" xmlns="http://www.w3.org/2000/svg"><title>icon-success</title><path d="M25 0C11.193 0 0 11.193 0 25s11.193 25 25 25 25-11.193 25-25S38.807 0 25 0zm0 48C12.297 48 2 37.703 2 25S12.297 2 25 2s23 10.297 23 23-10.297 23-23 23zM4.392 41.111l.01-.105a.51.51 0 0 0-.01.105zM25 .037C11.208.037.027 11.218.027 25.011c0 13.792 11.18 24.973 24.973 24.973 13.792 0 24.973-11.181 24.973-24.973C49.973 11.218 38.793.037 25 .037zm0 47.34c-12.352 0-22.366-10.014-22.366-22.366C2.634 12.658 12.648 2.645 25 2.645S47.366 12.658 47.366 25.01c0 12.352-10.014 22.366-22.366 22.366zm11.428-21.634l.001-.08h-.005a1.306 1.306 0 0 0-2.605.186 8.822 8.822 0 0 1-17.639-.012v-.011l-.001-.069v-.037a1.305 1.305 0 0 0-2.597-.057h-.011v.109a1.294 1.294 0 0 0 .003.14C13.706 32.109 18.77 37.093 25 37.093c6.247 0 11.322-5.011 11.427-11.233l.002-.077v-.04zM12.077 15.097a2.5 2.5 0 1 0 5 0 2.5 2.5 0 0 0-5 0zm20.846.754a2.5 2.5 0 1 0 5 0 2.5 2.5 0 0 0-5 0z" fill="#4F62DF" fill-rule="nonzero"/></svg>