<?xml version="1.0" standalone="no"?><!DOCTYPE svg PUBLIC "-//W3C//DTD SVG 1.1//EN" "http://www.w3.org/Graphics/SVG/1.1/DTD/svg11.dtd"><svg t="1520233002968" class="icon" style="" viewBox="0 0 1024 1024" version="1.1" xmlns="http://www.w3.org/2000/svg" p-id="1151" xmlns:xlink="http://www.w3.org/1999/xlink" width="64" height="64"><defs><style type="text/css"></style></defs><path d="M614.46629167 180.44240587v-69.14392041h-202.71109189v69.14392041c-161.61350065 44.42982834-280.46329152 192.71438051-280.46329156 368.2122025 0 210.48631187 171.33252563 381.81883748 381.81883749 381.8188375S894.92958318 759.14092027 894.92958318 548.37692195c0-175.49782203-118.84979087-323.50468777-280.46329151-367.93451608z m-101.35554596 680.33174677c-172.16558491 0-312.39723067-140.23164575-312.39723067-312.39723069s140.23164575-312.39723067 312.39723067-312.39723062 312.39723067 140.23164575 312.39723065 312.39723062-140.23164575 312.39723067-312.39723065 312.39723069z" fill="" p-id="1152"></path><path d="M518.94216069 294.29384102v3.0545507L481.45449301 542.82319343c-3.0545507 20.54879563 12.77357563 39.15378623 33.60005769 39.15378625 20.27110916 0 36.09923552-17.77193132 33.60005767-38.04304053l-29.71244768-249.64009813z" fill="" p-id="1153"></path></svg>