<?xml version="1.0" standalone="no"?><!DOCTYPE svg PUBLIC "-//W3C//DTD SVG 1.1//EN" "http://www.w3.org/Graphics/SVG/1.1/DTD/svg11.dtd"><svg t="1520320430310" class="icon" style="" viewBox="0 0 1024 1024" version="1.1" xmlns="http://www.w3.org/2000/svg" p-id="1296" xmlns:xlink="http://www.w3.org/1999/xlink" width="64" height="64"><defs><style type="text/css"></style></defs><path d="M512 0C227.555556 0 0 227.555556 0 512S227.555556 1024 512 1024 1024 796.444444 1024 512 796.444444 0 512 0z m265.481481 758.518519h-568.888888c-11.377778 0-18.962963-7.585185-18.962963-18.962963s7.585185-18.962963 18.962963-18.962963H265.481481v-303.407408c0-22.755556 15.17037-37.925926 37.925926-37.925926s37.925926 15.17037 37.925926 37.925926v303.407408h113.777778V303.407407c0-22.755556 15.17037-37.925926 37.925926-37.925926s37.925926 18.962963 37.925926 37.925926v417.185186h113.777778V227.555556c0-22.755556 15.17037-37.925926 37.925926-37.925926s37.925926 15.17037 37.925926 37.925926v493.037037h56.888888c11.377778 0 18.962963 7.585185 18.962963 18.962963s-7.585185 18.962963-18.962963 18.962963z" p-id="1297"></path></svg>