<?xml version="1.0" standalone="no"?><!DOCTYPE svg PUBLIC "-//W3C//DTD SVG 1.1//EN" "http://www.w3.org/Graphics/SVG/1.1/DTD/svg11.dtd"><svg t="1520320634631" class="icon" style="" viewBox="0 0 1024 1024" version="1.1" xmlns="http://www.w3.org/2000/svg" p-id="1527" xmlns:xlink="http://www.w3.org/1999/xlink" width="64" height="64"><defs><style type="text/css"></style></defs><path d="M777.481481 720.592593H720.592593V227.555556c0-22.755556-15.17037-37.925926-37.925926-37.925926s-37.925926 15.17037-37.925926 37.925926v493.037037h-113.777778V303.407407c0-18.962963-15.17037-37.925926-37.925926-37.925926s-37.925926 15.17037-37.925926 37.925926v417.185186H341.333333v-303.407408c0-22.755556-15.17037-37.925926-37.925926-37.925926s-37.925926 15.17037-37.925926 37.925926v303.407408H208.592593c-11.377778 0-18.962963 7.585185-18.962963 18.962963s7.585185 18.962963 18.962963 18.962963h568.888888c11.377778 0 18.962963-7.585185 18.962963-18.962963s-7.585185-18.962963-18.962963-18.962963z" p-id="1528"></path></svg>