<?xml version="1.0" standalone="no"?><!DOCTYPE svg PUBLIC "-//W3C//DTD SVG 1.1//EN" "http://www.w3.org/Graphics/SVG/1.1/DTD/svg11.dtd"><svg t="1516931355953" class="icon" style="" viewBox="0 0 1185 1024" version="1.1" xmlns="http://www.w3.org/2000/svg" p-id="996" xmlns:xlink="http://www.w3.org/1999/xlink" width="74.0625" height="64"><defs><style type="text/css"></style></defs><path d="M485.052632 1024l-215.578948-161.684211H107.789474c-59.284211 0-107.789474-48.505263-107.789474-107.789473V107.789474C0 48.505263 48.505263 0 107.789474 0h970.105263c59.284211 0 107.789474 48.505263 107.789474 107.789474v646.736842c0 59.284211-48.505263 107.789474-107.789474 107.789473h-377.263158l-215.578947 161.684211zM107.789474 53.894737c-32.336842 0-53.894737 21.557895-53.894737 53.894737v646.736842c0 26.947368 26.947368 53.894737 53.894737 53.894737h177.852631L485.052632 959.326316l194.021052-150.905263H1077.894737c32.336842 0 53.894737-21.557895 53.894737-53.894737V107.789474c0-26.947368-21.557895-53.894737-53.894737-53.894737H107.789474z" p-id="997"></path><path d="M323.368421 431.157895m-53.894737 0a53.894737 53.894737 0 1 0 107.789474 0 53.894737 53.894737 0 1 0-107.789474 0Z" p-id="998"></path><path d="M592.842105 431.157895m-53.894737 0a53.894737 53.894737 0 1 0 107.789474 0 53.894737 53.894737 0 1 0-107.789474 0Z" p-id="999"></path><path d="M862.315789 431.157895m-53.894736 0a53.894737 53.894737 0 1 0 107.789473 0 53.894737 53.894737 0 1 0-107.789473 0Z" p-id="1000"></path></svg>